Coordinates
version=1
nRows=17
nColumns=24
inDegrees=yes

Units are S.I. units (second, meters, Newtons, ...)
Angles are in degrees.

endheader
time	pelvis_tilt	pelvis_list	pelvis_rotation	pelvis_tx	pelvis_ty	pelvis_tz	hip_flexion_r	hip_adduction_r	hip_rotation_r	knee_angle_r	ankle_angle_r	subtalar_angle_r	mtp_angle_r	hip_flexion_l	hip_adduction_l	hip_rotation_l	knee_angle_l	ankle_angle_l	subtalar_angle_l	mtp_angle_l	lumbar_extension	lumbar_bending	lumbar_rotation
      1.04400000	     -0.81627178	     -2.89279300	     -2.42522264	     -0.14100819	      0.97872097	      0.32579802	    -13.77782804	      6.83255194	     -1.84917436	     -9.67976776	     13.60438270	     -3.85603301	     -1.05187969	     22.78241858	     -1.32955334	     -4.99415830	      1.30437464	     -1.82144179	     -2.17757329	      1.36090270	     -0.88987648	      6.55387204	      6.27575176
      1.04816667	     -0.86912573	     -2.81753003	     -2.48373369	     -0.13519474	      0.97807617	      0.32562942	    -13.79639055	      6.70486108	     -1.82069308	    -10.22039393	     13.64971812	     -3.87668702	     -0.92589881	     22.78015554	     -1.20957708	     -4.95014257	      1.27697040	     -2.07921648	     -2.52562068	      1.50887921	     -0.80814621	      6.44702213	      6.37126794
      1.05233333	     -0.87752127	     -2.71737282	     -2.52143720	     -0.12931729	      0.97754954	      0.32546009	    -13.87556312	      6.55842572	     -1.78794353	    -10.72128290	     13.54420083	     -3.98271077	     -0.90266429	     22.78076521	     -1.06805234	     -5.03946869	      1.07322418	     -2.25609808	     -2.65415646	      1.53834043	     -0.76361663	      6.31672411	      6.35628167
      1.05650000	     -0.95547456	     -2.62613601	     -2.55246588	     -0.12344955	      0.97697585	      0.32526984	    -13.84529364	      6.42779973	     -1.73953745	    -11.29829151	     13.53969758	     -4.11250027	     -0.77669093	     22.84534402	     -0.93244982	     -4.95695039	      0.83795866	     -2.59691238	     -3.09368746	      1.70042571	     -0.63429975	      6.18777278	      6.38887027
      1.06066667	     -1.00746969	     -2.50796006	     -2.57052354	     -0.11752613	      0.97649571	      0.32506772	    -13.83678248	      6.27067249	     -1.70696612	    -11.87676991	     13.43566771	     -4.26848703	     -0.64799485	     22.90406163	     -0.77046406	     -4.92954358	      0.49710107	     -2.92838493	     -3.46007302	      1.86893847	     -0.52948756	      6.02553451	      6.38708688
      1.06483333	     -1.06140647	     -2.39450382	     -2.58212945	     -0.11159307	      0.97606257	      0.32485780	    -13.80157339	      6.12080683	     -1.67412244	    -12.49871205	     13.29113643	     -4.44870163	     -0.47924191	     22.97541252	     -0.61425264	     -4.86100491	      0.08324979	     -3.26784313	     -3.90461407	      2.08854415	     -0.42179581	      5.87343245	      6.37274816
      1.06900000	     -1.12219163	     -2.27489279	     -2.58703590	     -0.10563616	      0.97567210	      0.32463972	    -13.73725429	      5.96718318	     -1.64268045	    -13.15821940	     13.10659804	     -4.65026413	     -0.24990580	     23.06631082	     -0.45301970	     -4.77951246	     -0.40168713	     -3.61468792	     -4.36594322	      2.37501624	     -0.30750029	      5.71264167	      6.34796410
      1.07316667	     -1.09529851	     -2.11945412	     -2.53944402	     -0.09959022	      0.97544780	      0.32434920	    -13.78056182	      5.78145780	     -1.67052472	    -13.77941724	     12.82156943	     -4.88752456	      0.82507173	     23.03858323	     -0.23046381	     -4.61333970	     -0.86449394	     -4.13958189	     -4.97013967	      3.61167565	     -0.28909159	      5.50138139	      6.28981528
      1.07733333	     -1.22441446	     -1.99789403	     -2.53607114	     -0.09361420	      0.97506310	      0.32412287	    -13.58119668	      5.63199394	     -1.63900754	    -14.54775582	     12.62873022	     -5.06726379	      0.94718226	     23.27058065	     -0.08070455	     -4.63026529	     -1.55796228	     -4.44160213	     -5.25489131	      3.71477712	     -0.07854571	      5.33782290	      6.27303651
      1.08150000	     -1.29529102	     -1.85815700	     -2.48934022	     -0.08756834	      0.97480802	      0.32383991	    -13.44911192	      5.47156274	     -1.63938648	    -15.29607160	     12.33132975	     -5.30464400	      1.08159519	     23.40903022	      0.10988082	     -4.52563572	     -2.21146931	     -4.87779519	     -5.71618389	      3.81859584	      0.07115124	      5.14324855	      6.22604991
      1.08566667	     -1.36428696	     -1.71976477	     -2.44643079	     -0.08152952	      0.97460840	      0.32354009	    -13.27773030	      5.30865049	     -1.63789999	    -16.11567915	     11.98991829	     -5.55875273	      1.29629465	     23.53306591	      0.30111216	     -4.35915026	     -2.86621211	     -5.30457255	     -6.26000552	      3.96655642	      0.19972279	      4.96523497	      6.15369286
      1.08983333	     -1.42931379	     -1.57952934	     -2.38070153	     -0.07544710	      0.97446526	      0.32322290	    -13.09249960	      5.14758077	     -1.67447930	    -16.95726954	     11.58248366	     -5.79871845	      1.49791557	     23.66959535	      0.49633087	     -4.23057419	     -3.57276627	     -5.75537751	     -6.72538160	      4.08638783	      0.35538304	      4.76086214	      6.08886475
      1.09400000	     -1.49749447	     -1.43375437	     -2.31424534	     -0.06936199	      0.97436511	      0.32288829	    -12.86404859	      4.97741953	     -1.71573258	    -17.86524254	     11.12989156	     -6.04437361	      1.73240262	     23.80179951	      0.69871953	     -4.07265837	     -4.28254236	     -6.18793225	     -7.20276540	      4.20521085	      0.50111143	      4.56455416	      6.01027055
      1.09816667	     -1.55343113	     -1.27524425	     -2.24199979	     -0.06325831	      0.97432472	      0.32253010	    -12.61928184	      4.79204263	     -1.75904537	    -18.81944763	     10.65547553	     -6.29862471	      2.21653589	     23.91174630	      0.92207565	     -3.87127778	     -4.99466132	     -6.57296294	     -7.78421736	      4.41082310	      0.63429176	      4.34023672	      5.89982530
      1.10233333	     -1.57003726	     -1.09293278	     -2.15788822	     -0.05709244	      0.97440051	      0.32217553	    -12.39343559	      4.57572775	     -1.85416941	    -19.79910296	     10.02855966	     -6.52600139	      2.34977148	     23.98145444	      1.15899343	     -3.79937069	     -5.72233074	     -6.94969614	     -7.98741608	      4.45616510	      0.72804151	      4.08300322	      5.86300289
      1.10650000	     -1.68280299	     -0.98168301	     -2.07080743	     -0.05103897	      0.97437700	      0.32177441	    -11.99965779	      4.43909998	     -1.91873017	    -20.88431963	      9.40887972	     -6.76013534	      2.72400377	     24.15451003	      1.33754111	     -3.54999949	     -6.45043746	     -7.36396076	     -8.52154155	      4.55821138	      0.93016036	      3.94792483	      5.74203764
      1.11066667	     -1.66157724	     -0.78588674	     -1.94737823	     -0.04485840	      0.97456982	      0.32130028	    -11.74658306	      4.18818627	     -2.12525990	    -21.94450327	      8.55327356	     -7.00717740	      9.70824720	     24.15052718	      1.62175175	     -3.32494845	     -7.13285656	     -7.70447442	     -8.99061483	      6.03468948	      0.97635311	      3.67872941	      5.65390175
